<svg viewBox="0 0 298.72 298.59" xmlns="http://www.w3.org/2000/svg">
	<path d="m149.56 5.9087c-51.481-0.4742-82.878 72.951-88.64 126.06-0.68381 18.775-0.28061 13.693 1.7799 34.837l42.795 0.42232c-10.704-21.268-10.786-30.551-12.711-46.033-9.7859 3.8498-18.559 8.9304-31.693 10.487-0.68256 15.211 0.46656 26.268 1.6093 35.123l-36.439 3e-5c13.135 49.411 13.135 49.411 33.897 125.85h-54.234c0.82378-27.061 12.441-60.817 33.473-76.439l20.338 76.439c179.6 0.0134 0.42372 0 233.03 0-0.82519-35.944-23.353-69.288-33.473-72.638l-19.952 72.633c19.914-71.793 19.952-72.633 35.206-125-38.558-0.42229-38.558-0.42229-81.353-0.42231l42.795 2e-5c1.3874-15.484 1.6435-21.679 1.2712-35.897-8.9012-2.5966-17.38-1.0857-33.473-10.98-1.7226 17.559-0.98489 24.234-10.593 46.877h-87.709c-9.5047-19.407-9.7545-24.321-12.711-46.033 41.342-32.216 72.343-33.302 111.01-0.84461 13.557 7.4569 19.445 8.7145 33.473 10.98-1.2423-44.254-36.41-124.95-87.709-125.43z" fill="none" stroke="#000" stroke-linecap="round" stroke-linejoin="round" stroke-width="7"/>
	<ellipse cx="149.35" cy="219.99" rx="10.358" ry="10.248" fill="none" stroke="#000" stroke-linecap="round" stroke-linejoin="round" stroke-width="7"/>
</svg>
